ffmpeg version 4.2.7-0ubuntu0.1 Copyright (c) 2000-2022 the FFmpeg developers
  built with gcc 9 (Ubuntu 9.4.0-1ubuntu1~20.04.1)
  configuration: --prefix=/usr --extra-version=0ubuntu0.1 --toolchain=hardened --libdir=/usr/lib/x86_64-linux-gnu --incdir=/usr/include/x86_64-linux-gnu --arch=amd64 --enable-gpl --disable-stripping --enable-avresample --disable-filter=resample --enable-avisynth --enable-gnutls --enable-ladspa --enable-libaom --enable-libass --enable-libbluray --enable-libbs2b --enable-libcaca --enable-libcdio --enable-libcodec2 --enable-libflite --enable-libfontconfig --enable-libfreetype --enable-libfribidi --enable-libgme --enable-libgsm --enable-libjack --enable-libmp3lame --enable-libmysofa --enable-libopenjpeg --enable-libopenmpt --enable-libopus --enable-libpulse --enable-librsvg --enable-librubberband --enable-libshine --enable-libsnappy --enable-libsoxr --enable-libspeex --enable-libssh --enable-libtheora --enable-libtwolame --enable-libvidstab --enable-libvorbis --enable-libvpx --enable-libwavpack --enable-libwebp --enable-libx265 --enable-libxml2 --enable-libxvid --enable-libzmq --enable-libzvbi --enable-lv2 --enable-omx --enable-openal --enable-opencl --enable-opengl --enable-sdl2 --enable-libdc1394 --enable-libdrm --enable-libiec61883 --enable-nvenc --enable-chromaprint --enable-frei0r --enable-libx264 --enable-shared
  libavutil      56. 31.100 / 56. 31.100
  libavcodec     58. 54.100 / 58. 54.100
  libavformat    58. 29.100 / 58. 29.100
  libavdevice    58.  8.100 / 58.  8.100
  libavfilter     7. 57.100 /  7. 57.100
  libavresample   4.  0.  0 /  4.  0.  0
  libswscale      5.  5.100 /  5.  5.100
  libswresample   3.  5.100 /  3.  5.100
  libpostproc    55.  5.100 / 55.  5.100
Routing option strict to both codec and muxer layer
[h264 @ 0x556c2d0afe00] Reinit context to 1920x1088, pix_fmt: yuv420p
Input #0, mov,mp4,m4a,3gp,3g2,mj2, from '/var/www/html/project/media/video/original/lv_0_20220830104544.mp4':
  Metadata:
    major_brand     : isom
    minor_version   : 512
    compatible_brands: isomiso2avc1mp41
    Hw              : 1
                    : 
    LvMetaInfo      : {"data":{"appVersion":"6.6.0","capabilityName":"curve_speed","ccTtVid":"","draftInfo":{"adjust":0,"aiMatting":0,"audioToText":0,"chroma":0,"coverTemplateId":"","curveSpeed":1,"faceEffectId":"","filterId":"","gameplayAlgorithm":"","graphs":0,"keyframe":0,"
    bitRate         : 16000000
                    : 
    copyright       : f6d2345915aaca30c08514fca6620d06
    maxrate         : 30000000
                    : 
    te_is_reencode  : 1
                    : 
    encoder         : bytevehwavc
  Duration: 00:01:12.45, start: 0.000000, bitrate: 14762 kb/s
    Stream #0:0(und): Video: h264 (High), 1 reference frame (avc1 / 0x31637661), yuv420p(tv, bt709, left), 1920x1080 (1920x1088), 14637 kb/s, 30 fps, 30 tbr, 1000k tbn, 2000k tbc (default)
    Metadata:
      handler_name    : VideoHandler
    Stream #0:1(und): Audio: aac (LC) (mp4a / 0x6134706D), 44100 Hz, stereo, fltp, 128 kb/s (default)
    Metadata:
      handler_name    : SoundHandler
Input #1, png_pipe, from '/var/www/html/project/static/images/templates/logo.png':
  Duration: N/A, bitrate: N/A
    Stream #1:0: Video: png, 1 reference frame, rgba(pc), 1920x1080 [SAR 2835:2835 DAR 16:9], 25 tbr, 25 tbn, 25 tbc
[Parsed_scale_0 @ 0x556c2d0d5300] w:1280 h:720 flags:'bilinear' interl:0
[Parsed_scale_2 @ 0x556c2d0dfc40] w:1280 h:720 flags:'bilinear' interl:0
Stream mapping:
  Stream #0:0 (h264) -> scale (graph 0)
  Stream #1:0 (png) -> scale (graph 0)
  overlay (graph 0) -> Stream #0:0 (libx264)
  Stream #0:1 -> #0:1 (aac (native) -> aac (native))
Press [q] to stop, [?] for help
[graph_1_in_0_1 @ 0x556c2d4ca740] tb:1/44100 samplefmt:fltp samplerate:44100 chlayout:0x3
[h264 @ 0x556c2d0e19c0] Reinit context to 1920x1088, pix_fmt: yuv420p
[Parsed_scale_0 @ 0x556c2d56b340] w:1280 h:720 flags:'bilinear' interl:0
[Parsed_scale_2 @ 0x556c2e153b80] w:1280 h:720 flags:'bilinear' interl:0
[graph 0 input from stream 0:0 @ 0x556c2e156040] w:1920 h:1080 pixfmt:yuv420p tb:1/1000000 fr:30/1 sar:0/1 sws_param:flags=2
[graph 0 input from stream 1:0 @ 0x556c2e1570c0] w:1920 h:1080 pixfmt:rgba tb:1/25 fr:25/1 sar:2835/2835 sws_param:flags=2
[Parsed_scale_0 @ 0x556c2d56b340] w:1920 h:1080 fmt:yuv420p sar:0/1 -> w:1280 h:720 fmt:yuv420p sar:0/1 flags:0x2
[Parsed_setsar_1 @ 0x556c2d12f340] w:1280 h:720 sar:0/1 dar:16/9 -> sar:1/1 dar:16/9
[Parsed_scale_2 @ 0x556c2e153b80] w:1920 h:1080 fmt:rgba sar:2835/2835 -> w:1280 h:720 fmt:yuva420p sar:1/1 flags:0x2
[Parsed_setsar_3 @ 0x556c2e154640] w:1280 h:720 sar:1/1 dar:16/9 -> sar:1/1 dar:16/9
[Parsed_overlay_4 @ 0x556c2e155240] main w:1280 h:720 fmt:yuv420p overlay w:1280 h:720 fmt:yuva420p
[Parsed_overlay_4 @ 0x556c2e155240] [framesync @ 0x556c2e155368] Selected 1/1000000 time base
[Parsed_overlay_4 @ 0x556c2e155240] [framesync @ 0x556c2e155368] Sync level 2
[libx264 @ 0x556c2d135380] using SAR=1/1
[libx264 @ 0x556c2d135380] using cpu capabilities: MMX2 SSE2Fast SSSE3 SSE4.2 AVX FMA3 BMI2 AVX2
[libx264 @ 0x556c2d135380] profile High, level 3.1
[libx264 @ 0x556c2d135380] 264 - core 155 r2917 0a84d98 - H.264/MPEG-4 AVC codec - Copyleft 2003-2018 - http://www.videolan.org/x264.html - options: cabac=1 ref=1 deblock=1:0:0 analyse=0x3:0x113 me=hex subme=2 psy=1 psy_rd=1.00:0.00 mixed_ref=0 me_range=16 chroma_me=1 trellis=0 8x8dct=1 cqm=0 deadzone=21,11 fast_pskip=1 chroma_qp_offset=0 threads=22 lookahead_threads=5 sliced_threads=0 nr=0 decimate=1 interlaced=0 bluray_compat=0 constrained_intra=0 bframes=3 b_pyramid=2 b_adapt=1 b_bias=0 direct=1 weightb=1 open_gop=0 weightp=1 keyint=250 keyint_min=25 scenecut=40 intra_refresh=0 rc_lookahead=10 rc=crf mbtree=1 crf=18.0 qcomp=0.60 qpmin=0 qpmax=69 qpstep=4 ip_ratio=1.40 aq=1:1.00
Output #0, mp4, to '/var/www/html/project/media/video/watermarks/lv_0_20220830104544.mp4':
  Metadata:
    major_brand     : isom
    minor_version   : 512
    compatible_brands: isomiso2avc1mp41
    Hw              : 1
                    : 
    LvMetaInfo      : {"data":{"appVersion":"6.6.0","capabilityName":"curve_speed","ccTtVid":"","draftInfo":{"adjust":0,"aiMatting":0,"audioToText":0,"chroma":0,"coverTemplateId":"","curveSpeed":1,"faceEffectId":"","filterId":"","gameplayAlgorithm":"","graphs":0,"keyframe":0,"
    bitRate         : 16000000
                    : 
    copyright       : f6d2345915aaca30c08514fca6620d06
    maxrate         : 30000000
                    : 
    te_is_reencode  : 1
                    : 
    encoder         : Lavf58.29.100
    Stream #0:0: Video: h264 (libx264), 1 reference frame (avc1 / 0x31637661), yuv420p, 1280x720 [SAR 1:1 DAR 16:9], q=-1--1, 30 fps, 15360 tbn, 30 tbc (default)
    Metadata:
      encoder         : Lavc58.54.100 libx264
    Side data:
      cpb: bitrate max/min/avg: 0/0/0 buffer size: 0 vbv_delay: -1
    Stream #0:1(und): Audio: aac (LC) (mp4a / 0x6134706D), 44100 Hz, stereo, fltp, delay 1024, 128 kb/s (default)
    Metadata:
      handler_name    : SoundHandler
      encoder         : Lavc58.54.100 aac
[Parsed_overlay_4 @ 0x556c2e155240] [framesync @ 0x556c2e155368] Sync level 0
No more output streams to write to, finishing.
frame= 2172 fps=148 q=-1.0 Lsize=   60831kB time=00:01:12.39 bitrate=6883.0kbits/s speed=4.94x    
[AVIOContext @ 0x556c2d0ae0c0] Statistics: 0 seeks, 29 writeouts
video:59620kB audio:1135kB subtitle:0kB other streams:0kB global headers:0kB muxing overhead: 0.126194%
Input file #0 (/var/www/html/project/media/video/original/lv_0_20220830104544.mp4):
  Input stream #0:0 (video): 2172 packets read (132472086 bytes); 2172 frames decoded; 
  Input stream #0:1 (audio): 3120 packets read (1159206 bytes); 3118 frames decoded (3192832 samples); 
  Total: 5292 packets (133631292 bytes) demuxed
Input file #1 (/var/www/html/project/static/images/templates/logo.png):
  Input stream #1:0 (video): 1 packets read (111578 bytes); 1 frames decoded; 
  Total: 1 packets (111578 bytes) demuxed
Output file #0 (/var/www/html/project/media/video/watermarks/lv_0_20220830104544.mp4):
  Output stream #0:0 (video): 2172 frames encoded; 2172 packets muxed (61050582 bytes); 
  Output stream #0:1 (audio): 3118 frames encoded (3192832 samples); 3119 packets muxed (1162184 bytes); 
  Total: 5291 packets (62212766 bytes) muxed
[AVIOContext @ 0x556c2d136280] Statistics: 2 seeks, 241 writeouts
[libx264 @ 0x556c2d135380] frame I:13    Avg QP:17.85  size:162085
[libx264 @ 0x556c2d135380] frame P:758   Avg QP:20.35  size: 52473
[libx264 @ 0x556c2d135380] frame B:1401  Avg QP:22.62  size: 13682
[libx264 @ 0x556c2d135380] consecutive B-frames: 10.2%  9.5%  5.9% 74.4%
[libx264 @ 0x556c2d135380] mb I  I16..4:  5.6% 14.8% 79.6%
[libx264 @ 0x556c2d135380] mb P  I16..4:  6.3%  8.8%  5.6%  P16..4: 35.1% 22.0% 18.4%  0.0%  0.0%    skip: 3.8%
[libx264 @ 0x556c2d135380] mb B  I16..4:  1.2%  0.7%  0.2%  B16..8: 25.9% 13.0%  3.2%  direct:14.5%  skip:41.3%  L0:28.2% L1:37.9% BI:33.9%
[libx264 @ 0x556c2d135380] 8x8 transform intra:39.4% inter:30.5%
[libx264 @ 0x556c2d135380] coded y,uvDC,uvAC intra: 60.3% 64.4% 26.1% inter: 28.8% 19.9% 2.6%
[libx264 @ 0x556c2d135380] i16 v,h,dc,p: 33% 40% 16% 11%
[libx264 @ 0x556c2d135380] i8 v,h,dc,ddl,ddr,vr,hd,vl,hu: 16% 32% 20%  5%  5%  5%  6%  5%  7%
[libx264 @ 0x556c2d135380] i4 v,h,dc,ddl,ddr,vr,hd,vl,hu: 19% 23% 13%  7%  8%  7%  9%  7%  8%
[libx264 @ 0x556c2d135380] i8c dc,h,v,p: 46% 31% 17%  7%
[libx264 @ 0x556c2d135380] Weighted P-Frames: Y:8.0% UV:1.3%
[libx264 @ 0x556c2d135380] kb/s:6745.84
[aac @ 0x556c2d1233c0] Qavg: 180.557
[AVIOContext @ 0x556c2d0b7040] Statistics: 198318565 bytes read, 3848 seeks
[AVIOContext @ 0x556c2d10ba40] Statistics: 111578 bytes read, 0 seeks
